<svg xmlns="http://www.w3.org/2000/svg" width="1151.268" height="744.809" viewBox="0 0 1151.268 744.809">
  <g id="Group_3635" data-name="Group 3635" transform="translate(-0.371 -55)">
    <g id="Group_3634" data-name="Group 3634" transform="translate(0.371 55)" opacity="0.58">
      <g id="Group_3633" data-name="Group 3633" transform="translate(0 0)">
        <circle id="Ellipse_14" data-name="Ellipse 14" cx="8.785" cy="8.785" r="8.785" transform="translate(159.537)" fill="#3c9b36"/>
        <circle id="Ellipse_15" data-name="Ellipse 15" cx="8.785" cy="8.785" r="8.785" transform="translate(0 193.394)" fill="#3c9b36"/>
        <circle id="Ellipse_18" data-name="Ellipse 18" cx="11.452" cy="11.452" r="11.452" transform="translate(56.957 159.187)" fill="#3c9b36"/>
        <circle id="Ellipse_22" data-name="Ellipse 22" cx="11.452" cy="11.452" r="11.452" transform="translate(88.553 668.09)" fill="#3c9b36"/>
        <path id="Path_2870" data-name="Path 2870" d="M486.844,313.1a4.461,4.461,0,1,1-4.461-4.461A4.461,4.461,0,0,1,486.844,313.1Z" transform="translate(-348.328 427.249)" fill="#3c9b36" fill-rule="evenodd"/>
        <path id="Path_2871" data-name="Path 2871" d="M481.424,291.6a4.461,4.461,0,1,1-4.461-4.461A4.461,4.461,0,0,1,481.424,291.6Z" transform="translate(-365.506 359.119)" fill="#3c9b36" fill-rule="evenodd"/>
        <path id="Path_2875" data-name="Path 2875" d="M470.338,160.587a4.393,4.393,0,1,1-4.391-4.39A4.392,4.392,0,0,1,470.338,160.587Z" transform="translate(-400.205 -55.898)" fill="#3c9b36" fill-rule="evenodd"/>
      </g>
      <g id="Group_3632" data-name="Group 3632" transform="translate(792.751 715.928) rotate(-90)">
        <circle id="Ellipse_17" data-name="Ellipse 17" cx="13.672" cy="13.672" r="13.672" transform="translate(75.708 287.993)" fill="#3c9b36"/>
        <circle id="Ellipse_19" data-name="Ellipse 19" cx="13.686" cy="13.686" r="13.686" fill="#3c9b36"/>
        <circle id="Ellipse_20" data-name="Ellipse 20" cx="13.686" cy="13.686" r="13.686" transform="translate(135.057 331.144)" fill="#3c9b36"/>
        <path id="Path_2874" data-name="Path 2874" d="M10.664,5.332A5.332,5.332,0,1,1,5.332,0,5.332,5.332,0,0,1,10.664,5.332Z" transform="translate(480.23 339.499)" fill="#3c9b36" fill-rule="evenodd"/>
        <path id="Path_2876" data-name="Path 2876" d="M10.5,5.252A5.25,5.25,0,1,1,5.252,0,5.247,5.247,0,0,1,10.5,5.252Z" transform="translate(233.246 256.91)" fill="#3c9b36" fill-rule="evenodd"/>
        <circle id="Ellipse_23" data-name="Ellipse 23" cx="8.212" cy="8.212" r="8.212" transform="translate(699.505 72.083)" fill="#3c9b36"/>
        <path id="Path_2880" data-name="Path 2880" d="M16.424,8.212A8.212,8.212,0,1,1,8.212,0,8.213,8.213,0,0,1,16.424,8.212Z" transform="translate(40.762 304.762)" fill="#3c9b36" fill-rule="evenodd"/>
        <circle id="Ellipse_24" data-name="Ellipse 24" cx="5.25" cy="5.25" r="5.25" transform="translate(671.85 312.975)" fill="#3c9b36"/>
      </g>
    </g>
    <text id="The_most_convenient_way_to_pay_share_and_earn_" data-name="The most convenient way to 
pay, share and earn !" transform="translate(140.371 154.404)" fill="#3e4555" font-size="42" font-family="Helvetica-BoldOblique, Helvetica" font-weight="700" letter-spacing="-0.02em" font-style="oblique"><tspan x="0" y="0">The</tspan><tspan y="0" font-family="CorsivaHebrew-Bold, Corsiva Hebrew" font-style="normal"> </tspan><tspan y="0">most</tspan><tspan y="0" font-family="CorsivaHebrew-Bold, Corsiva Hebrew" font-style="normal"> </tspan><tspan y="0">convenient</tspan><tspan y="0" font-family="CorsivaHebrew-Bold, Corsiva Hebrew" font-style="normal"> </tspan><tspan y="0">way</tspan><tspan y="0" font-family="CorsivaHebrew-Bold, Corsiva Hebrew" font-style="normal"> </tspan><tspan y="0">to</tspan><tspan y="0" font-family="CorsivaHebrew-Bold, Corsiva Hebrew" font-style="normal"> </tspan><tspan fill="#48a547"><tspan x="0" y="50">pay</tspan><tspan y="50" fill="#3e4555" font-family="CorsivaHebrew-Bold, Corsiva Hebrew" font-style="normal">, </tspan><tspan y="50">share</tspan><tspan y="50" fill="#3e4555" font-family="CorsivaHebrew-Bold, Corsiva Hebrew" font-style="normal"> </tspan><tspan y="50" fill="#3e4555">and</tspan><tspan y="50" fill="#3e4555" font-family="CorsivaHebrew-Bold, Corsiva Hebrew" font-style="normal"> </tspan><tspan y="50" fill="#274699">earn</tspan><tspan y="50" xml:space="preserve" fill="#3e4555" font-family="CorsivaHebrew-Bold, Corsiva Hebrew" font-style="normal"> !</tspan></tspan></text>
    <g id="Tablet_login-rafiki" data-name="Tablet login-rafiki" transform="translate(116.325 16.652)">
      <g id="freepik--background-complete--inject-4" transform="translate(0 293.626)">
        <rect id="Rectangle_315" data-name="Rectangle 315" width="862.493" height="0.431" transform="translate(0 337.225)" fill="#ebebeb"/>
        <rect id="Rectangle_316" data-name="Rectangle 316" width="57.132" height="0.431" transform="translate(718.939 364.98)" fill="#ebebeb"/>
        <rect id="Rectangle_317" data-name="Rectangle 317" width="14.99" height="0.431" transform="translate(556.359 369.672)" fill="#ebebeb"/>
        <rect id="Rectangle_318" data-name="Rectangle 318" width="33.102" height="0.431" transform="translate(684.112 348.973)" fill="#ebebeb"/>
        <rect id="Rectangle_319" data-name="Rectangle 319" width="74.502" height="0.431" transform="translate(90.493 351.871)" fill="#ebebeb"/>
        <rect id="Rectangle_320" data-name="Rectangle 320" width="10.919" height="0.431" transform="translate(180.364 351.871)" fill="#ebebeb"/>
        <rect id="Rectangle_321" data-name="Rectangle 321" width="161.597" height="0.431" transform="translate(226.784 359.15)" fill="#ebebeb"/>
        <path id="Path_3224" data-name="Path 3224" d="M81.6,387.09c-.414-4.933.259-11.316,6.02-13.213,9.746-3.208,15.525-10.764,15.2-19.3s9.936-16.853,17.629-8.849,6.676-6.158,16.939-9.591,18.975,4.9,16.146,12.541,7.331,12.385,19.458,5.9,25.461,5.313,22.891,14.542-.466,10.264,7.21,7.193c6.21-2.484,16.353,2.725,17.474,10.781Z" transform="translate(59.088 -79.293)" fill="#e0e0e0"/>
        <path id="Path_3225" data-name="Path 3225" d="M362.141,382.638c-.466-3.9-.259-9.591,4.571-11.2,7.573-2.5,12.075-8.366,11.816-14.99s7.711-13.075,13.679-6.9,5.175-4.778,13.144-7.452,14.731,3.812,12.541,9.729,5.692,9.625,15.094,4.588,19.768,4.123,17.785,11.3-.362,7.969,5.589,5.572c5.054-2.018,13.438,2.536,13.627,9.315Z" transform="translate(262.425 -74.84)" fill="#e0e0e0"/>
        <path id="Path_3226" data-name="Path 3226" d="M465.512,396.079H288.339c-2.484-8.314,3.95-18.285,10.971-19.682,8.625-1.725,17.25-16.9,17.716-26.565S333,310.451,357.148,328.8s16.819,2.691,34.275-2.467,28.5,9.677,20.838,20.821c0,0,17.543-4.4,24.771,11.989s0,26.565,0,26.565S459.164,385.143,465.512,396.079Z" transform="translate(208.647 -88.282)" fill="#e0e0e0"/>
        <path id="Path_3244" data-name="Path 3244" d="M112.957,260.53a12.539,12.539,0,0,1-.38-2.484c-.293-5.175-5.175-4.33-9.4-5.037-3.277-.535,5.382-8.8-1.207-11.471a5.917,5.917,0,0,1-3.191-2.26,3.743,3.743,0,0,1,1.449-4.571,8.78,8.78,0,0,1,5-1.259c1.07-1.311.19-3.277-.845-4.623s-2.311-2.846-1.915-4.5c.587-2.484,4.071-2.57,6.572-2.087a17.89,17.89,0,0,0,1.363-5.175c.449-1.725,1.725-3.45,3.553-3.277s2.674,2.07,4.3,2.449c1.88.431,3.45-1.225,4.968-2.467s4.054-2.035,5.071-.4c.621.983.242,2.363.88,3.329,1.1,1.725,3.691.638,5.313-.552s4.174-2.277,5.313-.621a6.9,6.9,0,0,1,.621,1.725c.759,2.208,3.139,3.295,5,4.709s3.329,4.226,1.725,5.951c-.776.845-2.139,1.19-2.536,2.277-.466,1.345.914,2.57,2,3.45,1.828,1.552,2.156,6.175-.259,7.452-1,.535-2.484.69-2.743,1.811s.793,1.725,1.466,2.536a4.8,4.8,0,0,1-1.466,7.141c-.569.276-1.277.5-1.5,1.1a2.276,2.276,0,0,0,.138,1.345,7.228,7.228,0,0,1,.242,2.587,1.26,1.26,0,0,1-.328.811,1.225,1.225,0,0,1-.759.207c-3.45.155-5.175-1.069-7.279,1.949A1.811,1.811,0,0,1,132.4,261.6c-2.38.19-3.95-1.311-6.141-1.587-3.019-.38-3.674,1.19-6.331,2.432C115.786,264.619,113.75,263.428,112.957,260.53Z" transform="translate(71.41 -168.391)" fill="#ebebeb"/>
        <path id="Path_3245" data-name="Path 3245" d="M115.2,245.723a11.554,11.554,0,0,1-.379-2.484c-.311-5.175-5.175-4.33-9.418-5.037-3.26-.552,5.4-8.8-1.19-11.471a5.8,5.8,0,0,1-3.191-2.225,3.76,3.76,0,0,1,1.432-4.571,8.953,8.953,0,0,1,5.02-1.242c1.069-1.311.19-3.277-.845-4.623s-2.311-2.846-1.915-4.5c.586-2.484,4.071-2.57,6.572-2.087a17.889,17.889,0,0,0,1.363-5.175c.449-1.725,1.725-3.45,3.553-3.277s2.656,2.053,4.278,2.449,3.45-1.225,4.985-2.484,4.054-2.018,5.071-.379c.6.983.242,2.363.88,3.329,1.087,1.725,3.691.638,5.313-.552s4.174-2.277,5.313-.621a7.073,7.073,0,0,1,.621,1.725c.759,2.208,3.139,3.295,5,4.709s3.312,4.226,1.725,5.951c-.759.845-2.122,1.19-2.518,2.277s.914,2.57,2,3.45c1.828,1.535,2.156,6.175-.259,7.452-1,.535-2.484.69-2.743,1.725s.793,1.725,1.466,2.536a4.778,4.778,0,0,1-1.466,7.124c-.569.293-1.294.518-1.5,1.121a2.277,2.277,0,0,0,.138,1.345,6.8,6.8,0,0,1,.224,2.57,1.1,1.1,0,0,1-.31.811,1.156,1.156,0,0,1-.759.224c-3.45.155-5.175-1.087-7.279,1.949a2.6,2.6,0,0,1-.725.776,2.329,2.329,0,0,1-.966.224c-2.38.207-3.95-1.294-6.141-1.57-3.036-.38-3.674,1.173-6.348,2.432C118.025,249.811,115.99,248.587,115.2,245.723Z" transform="translate(73.034 -179.096)" fill="#ebebeb"/>
        <path id="Path_3246" data-name="Path 3246" d="M130.49,253.021a11.554,11.554,0,0,1-.38-2.484c-.311-5.175-5.175-4.347-9.418-5.037-3.26-.552,5.4-8.815-1.19-11.471a5.8,5.8,0,0,1-3.191-2.225,3.76,3.76,0,0,1,1.38-4.485,8.97,8.97,0,0,1,5.02-1.259c1.07-1.294.19-3.277-.845-4.606s-2.311-2.846-1.915-4.5c.586-2.484,4.071-2.57,6.572-2.087a17.888,17.888,0,0,0,1.363-5.089c.449-1.725,1.725-3.45,3.553-3.295s2.656,2.07,4.278,2.449,3.45-1.207,4.985-2.467,4.054-2.018,5.071-.379c.6.983.242,2.363.88,3.329,1.087,1.725,3.691.638,5.313-.552s4.174-2.277,5.313-.621a7.073,7.073,0,0,1,.621,1.725c.759,2.191,3.139,3.295,5,4.709s3.312,4.226,1.725,5.934c-.776.862-2.122,1.207-2.518,2.294-.483,1.345.914,2.553,2,3.45,1.829,1.552,2.156,6.193-.259,7.469-1,.518-2.484.69-2.743,1.725s.793,1.725,1.466,2.536a4.778,4.778,0,0,1-1.466,7.124c-.569.276-1.294.5-1.5,1.1a2.329,2.329,0,0,0,.138,1.363,6.8,6.8,0,0,1,.224,2.57,1.139,1.139,0,0,1-.311.811,1.277,1.277,0,0,1-.759.224c-3.45.155-5.175-1.087-7.279,1.949a2.347,2.347,0,0,1-.725.759,2.1,2.1,0,0,1-.966.241c-2.38.207-3.95-1.294-6.141-1.57-3.036-.38-3.674,1.173-6.348,2.432C133.318,257.092,131.283,255.884,130.49,253.021Z" transform="translate(84.133 -173.681)" fill="#ebebeb"/>
        <path id="Path_3247" data-name="Path 3247" d="M145.957,249.694a14.475,14.475,0,0,1-.379-2.484c-.293-5.175-5.175-4.347-9.4-5.037-3.277-.552,5.382-8.815-1.208-11.488a5.831,5.831,0,0,1-3.191-2.208,3.743,3.743,0,0,1,1.449-4.571,8.78,8.78,0,0,1,5-1.259c1.069-1.311.207-3.277-.845-4.606s-2.311-2.863-1.915-4.5c.587-2.484,4.071-2.57,6.572-2.087a18.042,18.042,0,0,0,1.363-5.175c.448-1.725,1.725-3.45,3.571-3.295s2.656,2.07,4.278,2.449c1.88.448,3.45-1.225,4.985-2.467s4.054-2.035,5.054-.38c.621.983.259,2.346.88,3.312,1.1,1.725,3.691.638,5.313-.552s4.174-2.26,5.313-.6a6.418,6.418,0,0,1,.621,1.725c.776,2.191,3.157,3.295,5,4.709s3.329,4.209,1.725,5.934c-.776.845-2.139,1.19-2.518,2.277-.483,1.363.9,2.57,1.984,3.45,1.828,1.552,2.156,6.193-.242,7.452-1.018.535-2.5.707-2.743,1.725s.776,1.725,1.449,2.553a4.778,4.778,0,0,1-1.466,7.124c-.569.276-1.276.5-1.5,1.1a2.277,2.277,0,0,0,.138,1.346,7.3,7.3,0,0,1,.241,2.587,1.156,1.156,0,0,1-.328.811,1.121,1.121,0,0,1-.759.207c-3.45.155-5.175-1.069-7.279,1.949a2.415,2.415,0,0,1-.724.776,2.277,2.277,0,0,1-.966.242c-2.38.19-3.95-1.294-6.124-1.57-3.036-.4-3.674,1.173-6.348,2.432C148.786,253.765,146.75,252.558,145.957,249.694Z" transform="translate(95.334 -176.219)" fill="#ebebeb"/>
        <path id="Path_3248" data-name="Path 3248" d="M144.861,261.859a10.73,10.73,0,0,1-.293-1.966c-.241-4.054-4.105-3.45-7.4-3.967-2.587-.431,4.243-6.9-.949-9.022a4.589,4.589,0,0,1-2.518-1.725,2.95,2.95,0,0,1,1.138-3.588,7.056,7.056,0,0,1,3.933-1c.863-1.018.173-2.57-.655-3.623s-1.828-2.242-1.518-3.553c.483-1.949,3.208-2.018,5.175-1.639a14.731,14.731,0,0,0,1.069-4c.345-1.345,1.414-2.76,2.794-2.587s2.1,1.621,3.45,1.915,2.76-.949,3.916-1.932,3.191-1.6,4-.31c.466.776.19,1.863.69,2.622.863,1.328,2.9.5,4.174-.431s3.295-1.725,4.174-.483a5.176,5.176,0,0,1,.5,1.345c.6,1.725,2.467,2.6,3.933,3.709s2.622,3.329,1.38,4.692c-.6.655-1.725.931-1.984,1.725s.707,2.018,1.57,2.743c1.432,1.225,1.725,4.882-.19,5.882-.811.414-1.966.535-2.173,1.415s.621,1.4,1.156,2a3.778,3.778,0,0,1-1.156,5.623c-.448.207-1.018.4-1.173.862a1.725,1.725,0,0,0,.1,1.07,5.761,5.761,0,0,1,.19,2.035.966.966,0,0,1-.259.638.88.88,0,0,1-.6.155c-2.725.138-4.054-.845-5.727,1.552a1.9,1.9,0,0,1-.569.6,2.224,2.224,0,0,1-.759.19c-1.88.155-3.1-1.035-4.83-1.242-2.4-.31-2.9.914-5,1.915C147.087,265.136,145.482,264.17,144.861,261.859Z" transform="translate(96.775 -159.922)" fill="#ebebeb"/>
        <path id="Path_3249" data-name="Path 3249" d="M154.828,260.509a11.4,11.4,0,0,1-.38-2.484c-.31-5.175-5.175-4.33-9.418-5.037-3.26-.535,5.4-8.8-1.19-11.471a5.848,5.848,0,0,1-3.191-2.208,3.743,3.743,0,0,1,1.432-4.571,8.832,8.832,0,0,1,5.02-1.259c1.069-1.311.19-3.277-.845-4.623s-2.312-2.846-1.932-4.5c.6-2.484,4.071-2.57,6.589-2.087a17.887,17.887,0,0,0,1.363-5.175c.448-1.725,1.725-3.45,3.553-3.277s2.656,2.07,4.278,2.449c1.88.431,3.45-1.225,4.985-2.467s4.054-2.035,5.071-.4c.6.983.241,2.363.88,3.329,1.087,1.725,3.691.638,5.3-.552s4.192-2.277,5.33-.621a7.626,7.626,0,0,1,.621,1.725c.759,2.208,3.14,3.295,5,4.709s3.312,4.226,1.725,5.951c-.776.845-2.139,1.19-2.518,2.277-.483,1.346.914,2.57,2,3.45,1.828,1.552,2.156,6.175-.259,7.452-1.018.535-2.5.69-2.743,1.811s.794,1.725,1.466,2.536a4.8,4.8,0,0,1-1.466,7.141c-.586.276-1.294.5-1.5,1.1a2.277,2.277,0,0,0,.138,1.345,7.226,7.226,0,0,1,.224,2.587,1.156,1.156,0,0,1-.31.811,1.294,1.294,0,0,1-.759.207c-3.45.155-5.175-1.069-7.279,1.949a2.6,2.6,0,0,1-.724.776,2.657,2.657,0,0,1-.966.241c-2.4.19-3.95-1.311-6.141-1.587-3.036-.379-3.674,1.19-6.348,2.432C157.657,264.6,155.622,263.406,154.828,260.509Z" transform="translate(101.763 -168.369)" fill="#ebebeb"/>
        <path id="Path_3250" data-name="Path 3250" d="M130.5,234.868a11.73,11.73,0,0,1-.38-2.5c-.31-5.175-5.175-4.33-9.418-5.037-3.26-.535,5.4-8.8-1.19-11.471a5.761,5.761,0,0,1-3.191-2.208,3.76,3.76,0,0,1,1.432-4.571,8.832,8.832,0,0,1,5.02-1.259c1.069-1.311.19-3.277-.845-4.606s-2.311-2.863-1.915-4.5c.586-2.484,4.071-2.587,6.572-2.1a17.889,17.889,0,0,0,1.363-5.089c.448-1.725,1.725-3.45,3.553-3.277s2.656,2.07,4.278,2.449,3.45-1.225,4.985-2.467,4.054-2.035,5.071-.379c.6.983.242,2.346.88,3.312,1.087,1.725,3.691.638,5.313-.552s4.174-2.26,5.313-.621a7.625,7.625,0,0,1,.621,1.725c.759,2.208,3.139,3.312,5,4.726s3.312,4.209,1.725,5.934c-.776.845-2.122,1.19-2.518,2.277-.483,1.363.914,2.57,2,3.45,1.828,1.552,2.156,6.193-.259,7.452-1,.535-2.484.69-2.743,1.811s.794,1.725,1.466,2.553a4.778,4.778,0,0,1-1.466,7.124c-.569.276-1.294.5-1.5,1.1a2.277,2.277,0,0,0,.138,1.346,6.9,6.9,0,0,1,.224,2.587,1.156,1.156,0,0,1-.31.811,1.259,1.259,0,0,1-.759.207c-3.45.155-5.175-1.069-7.279,1.949a2.415,2.415,0,0,1-.724.776,2.346,2.346,0,0,1-.966.241c-2.38.19-3.95-1.294-6.141-1.57-3.036-.4-3.674,1.173-6.348,2.432C133.325,238.939,131.29,237.714,130.5,234.868Z" transform="translate(84.126 -186.905)" fill="#ebebeb"/>
        <path id="Path_3253" data-name="Path 3253" d="M96.15,246.94s8.625,12.3,11.7,16.2,18.009,28.221,20.062,44.3c.207,1.725.431,3.191.638,4.485-6.451,42.607-5.451,120.559-5.175,133.911h20.441c.19-15.059,1.932-152.627,2.57-156.818s9.229-21.373,22.425-28.324,24.616-29.963,24.616-29.963h-4.209s-7.814,14.11-18.975,21.907a42.359,42.359,0,0,1-5,2.967,70.947,70.947,0,0,0-4.416-24.874l-2.225,2.191c3.07,12.558,2.674,20.7,1.725,25.237a45.677,45.677,0,0,0-11.471,7.538c-11.523-14.973-17.992-49.231-17.992-49.231l-2.95,1.6a171.421,171.421,0,0,0,3.812,21.01c2.156,8.866,8.5,25.564,11.454,33.137a79.354,79.354,0,0,0-8.625,16.336,6.9,6.9,0,0,0-1.121-1.328c-7.573-6.727-21.666-38.778-21.666-38.778-3.45-7.452,1.725-27.013,1.725-27.013h-3.795l-1.725,17.095L97.944,227.741l-1.725,1.5,10.505,13.507,5.4,17.112-14.11-15.611Z" transform="translate(69.707 -165.479)" fill="#e6e6e6"/>
        <path id="Path_3254" data-name="Path 3254" d="M.017,0H661.411V20.562a13.662,13.662,0,0,1-13.662,13.662H13.662A13.662,13.662,0,0,1,0,20.562V0Z" transform="translate(761.961 338.674) rotate(180)" fill="#e0e0e0"/>
      </g>
      <g id="freepik--Shadow--inject-4" transform="translate(96.789 669.698)">
        <ellipse id="freepik--path--inject-4" cx="334.457" cy="19.527" rx="334.457" ry="19.527" fill="#f5f5f5"/>
      </g>
      <g id="freepik--Plant--inject-4" transform="translate(135.495 447.099)">
        <path id="Path_3255" data-name="Path 3255" d="M118.437,405.384s-2.449-17.526-13.61-19.475-7.849-10.35-10.764-13.7-10.574,6.417-4.019,15.8,1.19,6.434,4.019,15.163S119.438,419.925,118.437,405.384Z" transform="translate(-72.084 -206.52)" fill="#263238"/>
        <path id="Path_3256" data-name="Path 3256" d="M118.437,405.384s-2.449-17.526-13.61-19.475-7.849-10.35-10.764-13.7-10.574,6.417-4.019,15.8,1.19,6.434,4.019,15.163S119.438,419.925,118.437,405.384Z" transform="translate(-72.084 -206.52)" fill="#fff" opacity="0.2" style="isolation: isolate"/>
        <path id="Path_3257" data-name="Path 3257" d="M115.06,481.843a.776.776,0,0,1-.707-.431c0-.19-8.625-18.44-4.157-47.506a122.077,122.077,0,0,1,6.9-24.322c5.416-14.8,9.712-26.5-.1-47.851-3.1-6.762-6.262-13.058-9.332-19.147-11.523-22.873-20.7-40.934-13.8-59.219a.776.776,0,0,1,1-.466.794.794,0,0,1,.466,1c-6.538,17.664,2.432,35.448,13.8,57.977,3.07,6.106,6.262,12.42,9.367,19.2,10.091,21.942,5.468,34.5.138,49.041a119.3,119.3,0,0,0-6.8,24.012c-4.433,28.583,3.933,46.437,4.019,46.575a.794.794,0,0,1-.379,1.035A.742.742,0,0,1,115.06,481.843Z" transform="translate(-69.173 -270.818)" fill="#263238"/>
        <path id="Path_3258" data-name="Path 3258" d="M102.416,408.9s-7.245-10.936,3.226-16.56,12.558-1.087,18.975-5.175,11.385-13.8,12.489-7.573-6.382,9.832-3.726,12.7S115.837,413.834,102.416,408.9Z" transform="translate(-63.015 -202.154)" fill="#263238"/>
        <path id="Path_3259" data-name="Path 3259" d="M92.121,297.808s-7.072-21.476,9-21.925S99.487,295.531,92.121,297.808Z" transform="translate(-69.831 -275.876)" fill="#263238"/>
        <path id="Path_3260" data-name="Path 3260" d="M99.57,304.89s4.778-19.527,16.2-15.421S110.938,305.252,99.57,304.89Z" transform="translate(-63.308 -266.432)" fill="#263238"/>
        <path id="Path_3261" data-name="Path 3261" d="M95.439,305.838s1.725-15.525-10.35-15.9S78.344,303.319,95.439,305.838Z" transform="translate(-78.548 -265.69)" fill="#263238"/>
        <path id="Path_3262" data-name="Path 3262" d="M102.756,320.809s-16.249-14.473-22.08-3.691S92.941,330.159,102.756,320.809Z" transform="translate(-77.827 -248.87)" fill="#263238"/>
        <path id="Path_3263" data-name="Path 3263" d="M109.68,323.643s3.053-24.046,16.18-16.508S121.117,326.058,109.68,323.643Z" transform="translate(-55.978 -254.274)" fill="#263238"/>
        <path id="Path_3264" data-name="Path 3264" d="M117.475,345.213s-9.694-24.305,8.314-21.562S130.171,339.314,117.475,345.213Z" transform="translate(-52.216 -241.396)" fill="#263238"/>
        <path id="Path_3265" data-name="Path 3265" d="M113.662,346.7s-15.214-17.905-26.824-12.23S84.717,357.961,113.662,346.7Z" transform="translate(-76.037 -234.204)" fill="#263238"/>
        <path id="Path_3266" data-name="Path 3266" d="M108.36,372.957s12.955-28.773,24.478-19.078S125.489,378.08,108.36,372.957Z" transform="translate(-56.935 -220.771)" fill="#263238"/>
        <path id="Path_3267" data-name="Path 3267" d="M104.628,371.783s3.45-22.3-9.4-20.51S85.757,366.712,104.628,371.783Z" transform="translate(-72.023 -221.288)" fill="#263238"/>
        <g id="Group_3815" data-name="Group 3815" opacity="0.2" style="isolation: isolate">
          <path id="Path_3268" data-name="Path 3268" d="M92.121,297.808s-7.072-21.476,9-21.925S99.487,295.531,92.121,297.808Z" transform="translate(-69.831 -275.876)" fill="#fff"/>
          <path id="Path_3269" data-name="Path 3269" d="M99.57,304.89s4.778-19.527,16.2-15.421S110.938,305.252,99.57,304.89Z" transform="translate(-63.308 -266.432)" fill="#fff"/>
          <path id="Path_3270" data-name="Path 3270" d="M95.439,305.838s1.725-15.525-10.35-15.9S78.344,303.319,95.439,305.838Z" transform="translate(-78.548 -265.69)" fill="#fff"/>
          <path id="Path_3271" data-name="Path 3271" d="M102.756,320.809s-16.249-14.473-22.08-3.691S92.941,330.159,102.756,320.809Z" transform="translate(-77.827 -248.87)" fill="#fff"/>
          <path id="Path_3272" data-name="Path 3272" d="M109.68,323.643s3.053-24.046,16.18-16.508S121.117,326.058,109.68,323.643Z" transform="translate(-55.978 -254.274)" fill="#fff"/>
          <path id="Path_3273" data-name="Path 3273" d="M117.475,345.213s-9.694-24.305,8.314-21.562S130.171,339.314,117.475,345.213Z" transform="translate(-52.216 -241.396)" fill="#fff"/>
          <path id="Path_3274" data-name="Path 3274" d="M113.662,346.7s-15.214-17.905-26.824-12.23S84.717,357.961,113.662,346.7Z" transform="translate(-76.037 -234.204)" fill="#fff"/>
          <path id="Path_3275" data-name="Path 3275" d="M108.36,372.957s12.955-28.773,24.478-19.078S125.489,378.08,108.36,372.957Z" transform="translate(-56.935 -220.771)" fill="#fff"/>
          <path id="Path_3276" data-name="Path 3276" d="M104.628,371.783s3.45-22.3-9.4-20.51S85.757,366.712,104.628,371.783Z" transform="translate(-72.023 -221.288)" fill="#fff"/>
        </g>
        <path id="Path_3277" data-name="Path 3277" d="M102.709,312.874a.793.793,0,0,1-.38-.1c-9.5-5.33-16.353-15.387-16.646-15.818a.794.794,0,0,1,.224-1.087.759.759,0,0,1,1.069.224c0,.086,6.589,9.677,15.421,14.921,1.466-2.691,6.693-11.971,11.057-14.593a.776.776,0,0,1,1.07.276.742.742,0,0,1-.276,1.052c-4.64,2.794-10.781,14.576-10.85,14.7a.759.759,0,0,1-.466.4Z" transform="translate(-73.467 -261.479)" fill="#263238"/>
        <path id="Path_3278" data-name="Path 3278" d="M117.644,331.669a.812.812,0,0,1-.483-.155c-13.524-10.229-30.825-9.8-31.05-9.8a.828.828,0,0,1-.811-.759.776.776,0,0,1,.759-.793c.173,0,17.44-.449,31.309,9.608,1.725-2.9,8.763-13.369,17.681-18.613a.759.759,0,0,1,1.07.276.742.742,0,0,1-.276,1.052c-9.832,5.8-17.509,18.682-17.595,18.8a.707.707,0,0,1-.518.362Z" transform="translate(-73.653 -250.381)" fill="#263238"/>
        <path id="Path_3279" data-name="Path 3279" d="M124.371,358.107a.792.792,0,0,1-.38-.1c-.207-.121-19.975-11.488-34.275-11.764a.776.776,0,0,1,0-1.552c13.627.259,31.378,9.919,34.5,11.7,9.177-7.728,16.456-26.737,16.543-26.927a.776.776,0,1,1,1.449.552c-.311.811-7.728,20.148-17.422,27.927A.741.741,0,0,1,124.371,358.107Z" transform="translate(-71.014 -237.42)" fill="#263238"/>
        <path id="Path_3280" data-name="Path 3280" d="M110.425,380.016a.794.794,0,0,1-.4-.1c-7.469-4.278-17.129-23.011-17.543-23.8a.783.783,0,1,1,1.4-.707c0,.19,9.332,18.1,16.353,22.787A44.608,44.608,0,0,1,131.97,364.3a.793.793,0,0,1,.966.535.776.776,0,0,1-.517.966,42.745,42.745,0,0,0-21.373,13.8.724.724,0,0,1-.621.414Z" transform="translate(-68.505 -218.533)" fill="#263238"/>
        <path id="Path_3281" data-name="Path 3281" d="M113.093,401.563s-6.227-9.9-13.248-11.316-9.988-9.5-12.627-4.588S91.824,406.617,113.093,401.563Z" transform="translate(-72.639 -197.421)" fill="#263238"/>
        <path id="Path_3282" data-name="Path 3282" d="M85.227,434.36h67.93l4.554-41.9H80.69Z" transform="translate(-76.996 -191.354)" fill="#92e3a9"/>
        <path id="Path_3283" data-name="Path 3283" d="M80.2,400.786H160.4l1.018-8.866H79.17Z" transform="translate(-78.098 -191.745)" fill="#92e3a9"/>
        <path id="Path_3284" data-name="Path 3284" d="M80.2,400.786H160.4l1.018-8.866H79.17Z" transform="translate(-78.098 -191.745)" fill="#fff" opacity="0.3"/>
      </g>
      <g id="freepik--Streetlight--inject-4" transform="translate(688.235 218.753)">
        <path id="Path_3285" data-name="Path 3285" d="M446.271,154.06l-5.9,56.666H410.839l-5.9-56.666Z" transform="translate(-394.659 -135.844)" fill="#263238"/>
        <path id="Path_3286" data-name="Path 3286" d="M446.271,154.06l-5.9,56.666H410.839l-5.9-56.666Z" transform="translate(-394.659 -135.844)" fill="#fff" opacity="0.3"/>
        <rect id="Rectangle_322" data-name="Rectangle 322" width="10.988" height="408.649" transform="translate(25.444 62.703)" fill="#263238"/>
        <rect id="Rectangle_323" data-name="Rectangle 323" width="10.988" height="408.649" transform="translate(25.444 62.703)" fill="#fff" opacity="0.3"/>
        <path id="Path_3287" data-name="Path 3287" d="M435.657,205.826H412.335L407.16,156.06h33.672Z" transform="translate(-393.05 -134.394)" fill="#92e3a9"/>
        <path id="Path_3288" data-name="Path 3288" d="M435.657,205.826H412.335L407.16,156.06h33.672Z" transform="translate(-393.05 -134.394)" fill="#fff" opacity="0.4" style="isolation: isolate"/>
        <path id="Path_3289" data-name="Path 3289" d="M416.532,207.327h-1.587L413.22,155.06h1.587Z" transform="translate(-388.656 -135.119)" fill="#263238"/>
        <path id="Path_3290" data-name="Path 3290" d="M416.532,207.327h-1.587L413.22,155.06h1.587Z" transform="translate(-388.656 -135.119)" fill="#fff" opacity="0.3"/>
        <path id="Path_3291" data-name="Path 3291" d="M440.116,154.06l-5.9,56.666H415.655L413.43,154.06Z" transform="translate(-388.504 -135.844)" fill="#fff" opacity="0.2"/>
        <path id="Path_3292" data-name="Path 3292" d="M429.926,143.5S412.4,160.75,398.98,160.75l4.174,2.743h53.475l4.157-2.743C447.435,160.784,429.926,143.5,429.926,143.5Z" transform="translate(-398.98 -143.5)" fill="#263238"/>
        <path id="Path_3293" data-name="Path 3293" d="M460.841,160.77l-4.157,2.725H403.209L399,160.77c13.42,0,30.929-17.25,30.929-17.25S447.42,160.77,460.841,160.77Z" transform="translate(-398.966 -143.485)" fill="#fff" opacity="0.4"/>
        <path id="Path_3294" data-name="Path 3294" d="M451.938,160.784l-4.157,2.725H413.005c-1.052-1.725-1.725-2.95-1.725-2.95,9.332-4.33,9.8-17.06,9.8-17.06S438.518,160.784,451.938,160.784Z" transform="translate(-390.063 -143.5)" fill="#fff" opacity="0.2"/>
        <path id="Path_3295" data-name="Path 3295" d="M413.226,412.37H432.1a4.261,4.261,0,0,1,4.261,4.261v3.295H409v-3.295a4.261,4.261,0,0,1,4.226-4.261Z" transform="translate(-391.716 51.427)" fill="#263238"/>
        <path id="Path_3296" data-name="Path 3296" d="M413.226,412.37H432.1a4.261,4.261,0,0,1,4.261,4.261v3.295H409v-3.295a4.261,4.261,0,0,1,4.226-4.261Z" transform="translate(-391.716 51.427)" fill="#fff" opacity="0.5"/>
      </g>
      <g id="freepik--Character--inject-4" transform="translate(304.719 322.011)">
        <path id="Path_3303" data-name="Path 3303" d="M400.477,471.987h11.385L388.575,340.56H377.19Z" transform="translate(-31.261 -103.893)" fill="#263238"/>
        <path id="Path_3304" data-name="Path 3304" d="M255.317,471.987h11.4L243.432,340.56h-11.4Z" transform="translate(-136.5 -103.893)" fill="#263238"/>
        <path id="Path_3305" data-name="Path 3305" d="M400.477,471.987h11.385L388.575,340.56H377.19Z" transform="translate(-31.261 -103.893)" fill="#fff" opacity="0.3"/>
        <path id="Path_3306" data-name="Path 3306" d="M255.317,471.987h11.4L243.432,340.56h-11.4Z" transform="translate(-136.5 -103.893)" fill="#fff" opacity="0.3"/>
        <rect id="Rectangle_329" data-name="Rectangle 329" width="343.531" height="11.54" transform="translate(363.265 313.912) rotate(180)" fill="#263238"/>
        <rect id="Rectangle_330" data-name="Rectangle 330" width="343.531" height="11.54" transform="translate(363.265 313.912) rotate(180)" fill="#fff" opacity="0.5"/>
        <path id="Path_3307" data-name="Path 3307" d="M334.575,471.987H323.19L346.477,340.56h11.385Z" transform="translate(-70.411 -103.893)" fill="#263238"/>
        <path id="Path_3308" data-name="Path 3308" d="M189.432,471.987h-11.4L201.317,340.56h11.4Z" transform="translate(-175.65 -103.893)" fill="#263238"/>
        <path id="Path_3309" data-name="Path 3309" d="M334.575,471.987H323.19L346.477,340.56h11.385Z" transform="translate(-70.411 -103.893)" fill="#fff" opacity="0.3"/>
        <path id="Path_3310" data-name="Path 3310" d="M189.432,471.987h-11.4L201.317,340.56h11.4Z" transform="translate(-175.65 -103.893)" fill="#fff" opacity="0.3"/>
        <path id="Path_3311" data-name="Path 3311" d="M244.52,381.923h11.333L274.828,276.44H263.495Z" transform="translate(-127.445 -150.379)" fill="#263238"/>
        <path id="Path_3312" data-name="Path 3312" d="M244.52,381.923h11.333L274.828,276.44H263.495Z" transform="translate(-127.445 -150.379)" fill="#fff" opacity="0.3"/>
        <path id="Path_3313" data-name="Path 3313" d="M375.01,381.923h11.333L405.318,276.44H393.985Z" transform="translate(-32.842 -150.379)" fill="#263238"/>
        <path id="Path_3314" data-name="Path 3314" d="M309.76,381.923h11.333L340.068,276.44H328.735Z" transform="translate(-80.147 -150.379)" fill="#263238"/>
        <path id="Path_3315" data-name="Path 3315" d="M375.01,381.923h11.333L405.318,276.44H393.985Z" transform="translate(-32.842 -150.379)" fill="#fff" opacity="0.3"/>
        <path id="Path_3316" data-name="Path 3316" d="M309.76,381.923h11.333L340.068,276.44H328.735Z" transform="translate(-80.147 -150.379)" fill="#fff" opacity="0.3"/>
        <path id="Path_3317" data-name="Path 3317" d="M233.17,288.914H530.851L534.4,269.18H236.723Z" transform="translate(-135.674 -155.642)" fill="#263238"/>
        <path id="Path_3318" data-name="Path 3318" d="M229.45,309.614H527.131l3.553-19.734H233Z" transform="translate(-138.371 -140.635)" fill="#263238"/>
        <path id="Path_3319" data-name="Path 3319" d="M225.72,330.314H523.4l3.553-19.734H229.273Z" transform="translate(-141.075 -125.628)" fill="#263238"/>
        <rect id="Rectangle_331" data-name="Rectangle 331" width="379.376" height="13.662" transform="translate(379.376 242.101) rotate(180)" fill="#263238"/>
        <path id="Path_3320" data-name="Path 3320" d="M233.17,288.914H530.851L534.4,269.18H236.723Z" transform="translate(-135.674 -155.642)" fill="#fff" opacity="0.5"/>
        <path id="Path_3321" data-name="Path 3321" d="M229.45,309.614H527.131l3.553-19.734H233Z" transform="translate(-138.371 -140.635)" fill="#fff" opacity="0.5"/>
        <path id="Path_3322" data-name="Path 3322" d="M225.72,330.314H523.4l3.553-19.734H229.273Z" transform="translate(-141.075 -125.628)" fill="#fff" opacity="0.5"/>
        <rect id="Rectangle_332" data-name="Rectangle 332" width="379.376" height="13.662" transform="translate(379.376 242.101) rotate(180)" fill="#fff" opacity="0.5"/>
        <rect id="Rectangle_333" data-name="Rectangle 333" width="286.227" height="13.662" transform="translate(286.227 242.101) rotate(180)" fill="#fff" opacity="0.2"/>
        <path id="Path_3323" data-name="Path 3323" d="M356.32,260.28c-8.021,8.47-27.255,29.221-39.157,28.859-12.558-1.345-26.6-20.7-33.292-30.5a4.312,4.312,0,0,1,6.4-5.623c8.176,6.8,19.768,17.44,27.479,20.545-1.173,0-1.4.242-.328-.431,9.694-6.9,17.888-16.249,26.306-24.633,8.021-7.814,19.855,3.243,12.592,11.782Z" transform="translate(-99.401 -172.565)" fill="#e9b376"/>
        <path id="Path_3324" data-name="Path 3324" d="M346.133,245.25v24.719s-5.175,4.347-11.644,9.142c-3.208,2.4-6.71,4.9-9.988,7.021-4.985,3.243-9.47,5.623-11.747,5.485-6.8-.414-21.545-10.954-21.545-10.954l9.694-16.146s11.143,6.814,11.851,7.279S336.836,245.405,346.133,245.25Z" transform="translate(-93.596 -172.991)" fill="#92e3a9"/>
        <path id="Path_3325" data-name="Path 3325" d="M320.5,270.18c-3.208,2.4-6.71,4.9-9.988,7.021.776-14.179,7.452-19.63,7.452-19.63A24.616,24.616,0,0,1,320.5,270.18Z" transform="translate(-79.603 -164.06)" opacity="0.2"/>
        <path id="Path_3326" data-name="Path 3326" d="M331.916,209.9c-11.9,9.712-10.488,37.656,2.881,55.993,0,0,28.566,2.4,44.436-4.709s-1.725-52.353-18.44-55.907a40,40,0,0,0-28.876,4.623Z" transform="translate(-69.96 -202.641)" fill="#263238"/>
        <path id="Path_3327" data-name="Path 3327" d="M330.52,239.653c-4.364-7.521-8.625-27.824,9.436-34.086,22.649-7.831,32.775,6.607,34.758,20.924s-6.107,25.133-21.079,24.064S333.522,244.863,330.52,239.653Z" transform="translate(-67.857 -203.361)" fill="#263238"/>
        <path id="Path_3328" data-name="Path 3328" d="M315.1,267.053c-2.208,10.471,1.725,35.138,2.312,53.733l53.337,6.141c0-5.83,1.087-14.283,4.571-27.721,1.984-7.866,4.847-17.457,8.763-29.221.569-1.725,1.173-3.45,1.725-5.365a13.265,13.265,0,0,0-10.35-17.819c-2.242-.362-4.623-.673-7.055-.914a179.408,179.408,0,0,0-25.875-1.363c-2.812.086-5.744.293-8.539.535C324.036,245.9,317.136,257.255,315.1,267.053Z" transform="translate(-76.759 -173.542)" fill="#263238"/>
        <path id="Path_3329" data-name="Path 3329" d="M357.494,228.41c-2.674,8.176-6.244,23.236-1.138,29.049,0,0-7.8-1.587-25.03,7.831-4.468-7.176-.759-9.194-.759-9.194,9.539-1.725,10.16-8.625,9.384-15.059Z" transform="translate(-66.11 -185.2)" fill="#ebb376"/>
        <path id="Path_3330" data-name="Path 3330" d="M345.78,231.39l-10.35,7.469a25.876,25.876,0,0,1,.207,4.606c3.605-.328,8.953-3.933,9.8-7.59A12.385,12.385,0,0,0,345.78,231.39Z" transform="translate(-61.537 -183.04)" opacity="0.2"/>
        <path id="Path_3331" data-name="Path 3331" d="M363.829,225.152c.19,13.645.552,19.423-5.8,26.91-9.522,11.264-26.341,8.5-30.6-4.813-3.83-12.075-3.45-32.309,9.418-38.709a18.63,18.63,0,0,1,26.979,16.612Z" transform="translate(-68.873 -201.038)" fill="#ffb573"/>
        <path id="Path_3332" data-name="Path 3332" d="M341.318,211.448c-3.778,4.744,4.83,19.682,11.626,22.218C366.14,229.319,352.616,197.286,341.318,211.448Z" transform="translate(-57.937 -200.099)" fill="#263238"/>
        <path id="Path_3333" data-name="Path 3333" d="M335.91,206.485c-5.02,2.208-9.729,11.644-10.35,15.163,7.469.569,26.7-8.056,26.7-8.056s13.541,2.484,6.262-3.622S335.91,206.485,335.91,206.485Z" transform="translate(-68.692 -201.501)" fill="#263238"/>
        <path id="Path_3334" data-name="Path 3334" d="M335.586,221.366c0,1.1-.431,2.035-1.156,2.1s-1.38-.811-1.466-1.915.449-2.035,1.173-2.1S335.5,220.262,335.586,221.366Z" transform="translate(-63.331 -191.698)" fill="#263238"/>
        <path id="Path_3335" data-name="Path 3335" d="M328.336,221.9c0,1.1-.431,2.053-1.156,2.1s-1.38-.794-1.466-1.9.449-2.053,1.173-2.1S328.25,220.794,328.336,221.9Z" transform="translate(-68.588 -191.298)" fill="#263238"/>
        <path id="Path_3336" data-name="Path 3336" d="M327.708,220.239,325,219.67S326.518,221.671,327.708,220.239Z" transform="translate(-69.098 -191.536)" fill="#263238"/>
        <path id="Path_3337" data-name="Path 3337" d="M331.76,221.9a30.46,30.46,0,0,1-3.45,7.366,4.8,4.8,0,0,0,4,.431Z" transform="translate(-66.699 -189.92)" fill="#ed893e"/>
        <path id="Path_3338" data-name="Path 3338" d="M335.149,230.573a11.011,11.011,0,0,1-1.621.259.328.328,0,1,1,0-.656,8.746,8.746,0,0,0,6.9-3.967.311.311,0,0,1,.431-.121.328.328,0,0,1,.138.431,9.09,9.09,0,0,1-5.848,4.054Z" transform="translate(-63.154 -186.915)" fill="#263238"/>
        <path id="Path_3339" data-name="Path 3339" d="M354.491,226.927a9.936,9.936,0,0,1-4.761,5.951c-3.071,1.725-5.382-.914-5.175-4.226.19-2.967,2.018-7.417,5.434-7.728a4.485,4.485,0,0,1,4.5,6Z" transform="translate(-54.93 -190.634)" fill="#ffb573"/>
        <path id="Path_3340" data-name="Path 3340" d="M340.846,220.573a.673.673,0,0,1-.707-.31c-1.552-2.57-5.416-2.881-5.451-2.881a.657.657,0,1,1,.086-1.311c.19,0,4.589.38,6.486,3.45a.655.655,0,0,1-.224.9Z" transform="translate(-62.52 -194.147)" fill="#263238"/>
        <path id="Path_3341" data-name="Path 3341" d="M325.9,219a.658.658,0,0,1-.621-1.1,6.4,6.4,0,0,1,5.658-1.811.646.646,0,0,1-.293,1.259h0a5.175,5.175,0,0,0-4.468,1.483A.724.724,0,0,1,325.9,219Z" transform="translate(-69.034 -194.208)" fill="#263238"/>
        <path id="Path_3342" data-name="Path 3342" d="M334.958,219.719l-2.708-.569S333.768,221.116,334.958,219.719Z" transform="translate(-63.842 -191.913)" fill="#263238"/>
        <path id="Path_3343" data-name="Path 3343" d="M305.819,252.656l1.294,4.036a4.916,4.916,0,0,0,3.191,3.191l7.107,2.277a9.177,9.177,0,0,0,8.332-1.4l1.466-1.1c-1.725-6.9-8.539-13.006-8.539-13.006l-1.725-1.984a4.123,4.123,0,0,0-5.813-.466l-3.95,3.45A4.709,4.709,0,0,0,305.819,252.656Z" transform="translate(-83.175 -174.464)" fill="#ebb376"/>
        <path id="Path_3344" data-name="Path 3344" d="M278.1,254.8l1.294,4.054a4.968,4.968,0,0,0,3.208,3.191l7.09,2.277a9.229,9.229,0,0,0,8.332-1.4l1.483-1.1c-1.725-6.9-8.625-13.024-8.625-13.024l-1.725-1.966a4.105,4.105,0,0,0-5.83-.466l-3.95,3.45A4.744,4.744,0,0,0,278.1,254.8Z" transform="translate(-103.276 -172.912)" fill="#ebb376"/>
        <path id="Path_3345" data-name="Path 3345" d="M338.088,271.165c3.45,10.108,12.2,17.647,20.579,22.114,1.984-7.866,4.847-17.457,8.763-29.221-5.261-7.348-12.627-12.575-22.011-11.161C345.42,252.9,334.621,260.936,338.088,271.165Z" transform="translate(-60.107 -167.615)" opacity="0.2"/>
        <path id="Path_3346" data-name="Path 3346" d="M228.07,443.713l9,3.64s76.5-115.4,83.593-111.072c25.65,15.715,78.383,43.8,103.344,26.789s10.143-61.841,10.143-61.841-48.541-17.043-54.544-6.5a81.607,81.607,0,0,0-4.123,9.712c-1.242,3.329-2.208,6.141-2.208,6.141h0c-1.466-.69-49.041-23.581-71.449-14.145C279.043,306.007,228.07,443.713,228.07,443.713Z" transform="translate(-139.371 -139.616)" fill="#ebb376"/>
        <path id="Path_3347" data-name="Path 3347" d="M365.111,353.217s-24.064,1.57-57.028-9.625c0,0-8.125,91.907-13.593,141.794l-11.04-1.552s-18.785-136.17-15.076-152.765,23.857-17.7,23.857-17.7S330.646,341.608,365.111,353.217Z" transform="translate(-110.503 -123.605)" fill="#ebb376"/>
        <path id="Path_3348" data-name="Path 3348" d="M344.484,344.481A179.052,179.052,0,0,1,296.34,338.5l3.139-13.075C311.606,333.441,328.528,338.323,344.484,344.481Z" transform="translate(-89.877 -114.869)" fill="#92e3a9"/>
        <path id="Path_3349" data-name="Path 3349" d="M344.484,344.481A179.052,179.052,0,0,1,296.34,338.5l3.139-13.075C311.606,333.441,328.528,338.323,344.484,344.481Z" transform="translate(-89.877 -114.869)" fill="#fff" opacity="0.4"/>
        <path id="Path_3350" data-name="Path 3350" d="M298.191,324.65l-2.881,14.559,4.381,1.5,3.381-12.851Z" transform="translate(-90.623 -115.428)" fill="#92e3a9"/>
        <path id="Path_3351" data-name="Path 3351" d="M298.191,324.65l-2.881,14.559,4.381,1.5,3.381-12.851Z" transform="translate(-90.623 -115.428)" fill="#fff" opacity="0.6" style="isolation: isolate"/>
        <path id="Path_3352" data-name="Path 3352" d="M272.354,388.934c-1.725-36.225-2.484-54.924,3.45-62.393a26.254,26.254,0,0,1,15.266-8.832c7.728,19.579,41.4,31.791,42.331,32.119h0c12.575,2.6,31.205,3.277,31.671,3.45a123.975,123.975,0,0,1-45-18.975,283.933,283.933,0,0,1-27.858-20.924s-20.1,1.087-23.8,17.681c-1.518,6.8.725,33.568,3.9,62.876A45.738,45.738,0,0,0,272.354,388.934Z" transform="translate(-110.482 -123.598)" opacity="0.2" style="isolation: isolate"/>
        <path id="Path_3353" data-name="Path 3353" d="M222.909,377.327a1.432,1.432,0,0,1,.345-1.622,1.6,1.6,0,0,1,1.156-.6,6.349,6.349,0,0,1,3.26,1.087c-.845-1.1-1.5-2.294-1.208-3.036.19-.483.673-.742,1.449-.742a2.346,2.346,0,0,1,1.811.776c1.5,1.639,1.173,5.382,1.173,5.554a.518.518,0,0,1,0,.173.172.172,0,0,1,0,.086.309.309,0,0,1-.121,0h-.138a24.669,24.669,0,0,1-4.813-.362C224.393,378.482,223.254,378.051,222.909,377.327Zm1.57-1.415a.811.811,0,0,0-.6.293c-.4.483-.293.707-.259.776.414.828,3.295,1.242,5.727,1.311C227.946,377.24,225.756,375.791,224.479,375.912Zm3.45-2.708c-.224,0-.621,0-.707.241-.241.638,1.242,2.622,2.915,4.347a6.538,6.538,0,0,0-1-4.071,1.517,1.517,0,0,0-.828-.483Z" transform="translate(-143.198 -80.803)" fill="#263238"/>
        <path id="Path_3354" data-name="Path 3354" d="M270.852,410.482a1.466,1.466,0,0,1-.379-1.622,1.621,1.621,0,0,1,.793-1.035,6.331,6.331,0,0,1,3.45-.414c-1.242-.638-2.329-1.432-2.38-2.225a1.506,1.506,0,0,1,.983-1.294,2.312,2.312,0,0,1,1.967,0c2.07.828,3.45,4.347,3.45,4.5a.379.379,0,0,1,0,.19h0a.242.242,0,0,1-.086.138l-.086.086h0a18.834,18.834,0,0,1-6.331,2A2.087,2.087,0,0,1,270.852,410.482Zm.828-1.967a.811.811,0,0,0-.431.535c-.155.6,0,.759.1.811.725.569,3.45-.293,5.727-1.276-1.708-.345-4.312-.707-5.4-.069Zm1.932-3.9c-.207.1-.552.293-.535.518,0,.673,2.225,1.828,4.5,2.656a6.59,6.59,0,0,0-2.657-3.226,1.432,1.432,0,0,0-.586-.121,1.587,1.587,0,0,0-.724.173Z" transform="translate(-108.703 -58.137)" fill="#263238"/>
        <path id="Path_3355" data-name="Path 3355" d="M253.922,382.294c.5-1.138-13.8-6.624-13.8-6.624s-12.472,4.726-21.631,2.863-6.9,5.175,2.415,9.453l22.8,10.522C250.351,401.528,248.833,394.058,253.922,382.294Z" transform="translate(-150.543 -78.439)" fill="#263238"/>
        <path id="Path_3356" data-name="Path 3356" d="M300.935,405.8c0-1.242-15.232-.086-15.232-.086s-9.246,9.625-18.3,11.868-3.916,7.642,6.244,7.521l25.116-.31C305.971,424.708,301.383,418.636,300.935,405.8Z" transform="translate(-114.257 -57.011)" fill="#263238"/>
        <path id="Path_3357" data-name="Path 3357" d="M381.629,301.229s-48.541-17.043-54.544-6.5a84.533,84.533,0,0,0-4.123,9.712c-1.242,3.329-2.208,6.141-2.208,6.141h0l-3.985-1.828L300.52,357.274c25.875,14.352,62.393,16.008,77.366,5.813C402.794,346.079,381.629,301.229,381.629,301.229Z" transform="translate(-86.846 -139.616)" fill="#92e3a9"/>
        <g id="Group_3819" data-name="Group 3819" transform="translate(213.674 151.67)" opacity="0.4">
          <path id="Path_3358" data-name="Path 3358" d="M381.629,301.229s-48.541-17.043-54.544-6.5a84.533,84.533,0,0,0-4.123,9.712c-1.242,3.329-2.208,6.141-2.208,6.141h0l-3.985-1.828L300.52,357.274c25.875,14.352,62.393,16.008,77.366,5.813C402.794,346.079,381.629,301.229,381.629,301.229Z" transform="translate(-300.52 -291.286)" fill="#fff"/>
        </g>
        <path id="Path_3359" data-name="Path 3359" d="M312.25,305.051l28,11.885s-14.369-12.075-25.875-18.026C313.216,302.239,312.25,305.051,312.25,305.051Z" transform="translate(-78.342 -134.089)" opacity="0.3" style="isolation: isolate"/>
        <path id="Path_3360" data-name="Path 3360" d="M315.52,299.081l.983-11.971,54.251,7.211.707,11.557Z" transform="translate(-75.971 -142.643)" fill="#92e3a9"/>
        <path id="Path_3361" data-name="Path 3361" d="M315.52,299.081l.983-11.971,54.251,7.211.707,11.557Z" transform="translate(-75.971 -142.643)" fill="#fff" opacity="0.4"/>
        <path id="Path_3362" data-name="Path 3362" d="M316.309,287.79l2.846.414-.88,9.332-2.346-.276Z" transform="translate(-75.674 -142.15)" fill="#263238"/>
        <path id="Path_3363" data-name="Path 3363" d="M319.722,288.25l30.584,4.45-.793,8.487L318.86,297.53Z" transform="translate(-73.55 -141.817)" fill="#263238"/>
        <path id="Path_3364" data-name="Path 3364" d="M354.319,301.393l-16.129-1.915.793-8.418h0l14.559,2.1Z" transform="translate(-59.536 -139.78)" fill="#263238"/>
        <path id="Path_3365" data-name="Path 3365" d="M316.309,287.79l2.846.414-.88,9.332-2.346-.276Z" transform="translate(-75.674 -142.15)" opacity="0.2" style="isolation: isolate"/>
        <path id="Path_3366" data-name="Path 3366" d="M319.722,288.25l30.584,4.45-.793,8.487L318.86,297.53Z" transform="translate(-73.55 -141.817)" opacity="0.2" style="isolation: isolate"/>
        <path id="Path_3367" data-name="Path 3367" d="M354.319,301.393l-16.129-1.915.793-8.418h0l14.559,2.1Z" transform="translate(-59.536 -139.78)" opacity="0.2" style="isolation: isolate"/>
        <path id="Path_3368" data-name="Path 3368" d="M333.457,300.5h-.328l-8.711-1.156a2.466,2.466,0,0,1-1.639-.949,2.432,2.432,0,0,1-.5-1.828l.776-5.831a2.553,2.553,0,0,1,.949-1.725,2.484,2.484,0,0,1,1.828-.483l8.711,1.156a2.467,2.467,0,0,1,2.139,2.777l-.776,5.83A2.467,2.467,0,0,1,333.457,300.5ZM325.5,290.289a.741.741,0,0,0-.448.155.794.794,0,0,0-.293.5l-.759,5.83a.707.707,0,0,0,.138.552.793.793,0,0,0,.5.293h0l8.711,1.156a.759.759,0,0,0,.845-.656l.776-5.83a.776.776,0,0,0-.155-.552.793.793,0,0,0-.5-.293l-8.711-1.156Z" transform="translate(-71.087 -141.63)" fill="#fff"/>
        <path id="Path_3369" data-name="Path 3369" d="M330.651,293.711h-.138l-3.07-.5a.845.845,0,0,1-.707-.983.88.88,0,0,1,.983-.725l3.07.5a.865.865,0,0,1-.138,1.725Z" transform="translate(-67.85 -139.464)" fill="#fff"/>
        <path id="Path_3370" data-name="Path 3370" d="M315.83,299.46l4.519,2.381L305.014,353.97l-6.434-1.276Z" transform="translate(-88.253 -133.69)" fill="#92e3a9"/>
        <path id="Path_3371" data-name="Path 3371" d="M315.83,299.46l4.519,2.381L305.014,353.97l-6.434-1.276Z" transform="translate(-88.253 -133.69)" fill="#fff" opacity="0.6" style="isolation: isolate"/>
        <path id="Path_3372" data-name="Path 3372" d="M325.872,292.439h-37.95a2.95,2.95,0,0,1-2.881-2.657l-5.3-50.456a2.4,2.4,0,0,1,2.415-2.656h37.95a2.967,2.967,0,0,1,2.9,2.656l5.278,50.456a2.38,2.38,0,0,1-2.415,2.657Z" transform="translate(-101.917 -179.212)" fill="#263238"/>
        <path id="Path_3373" data-name="Path 3373" d="M325.872,292.439h-37.95a2.95,2.95,0,0,1-2.881-2.657l-5.3-50.456a2.4,2.4,0,0,1,2.415-2.656h37.95a2.967,2.967,0,0,1,2.9,2.656l5.278,50.456a2.38,2.38,0,0,1-2.415,2.657Z" transform="translate(-101.917 -179.212)" fill="#fff" opacity="0.6"/>
        <path id="Path_3374" data-name="Path 3374" d="M324.307,292.439H287.892a2.95,2.95,0,0,1-2.881-2.657l-5.3-50.456a2.4,2.4,0,0,1,2.415-2.656h36.414a2.95,2.95,0,0,1,2.881,2.656l5.365,50.37a2.38,2.38,0,0,1-2.484,2.743Z" transform="translate(-101.939 -179.212)" fill="#fff" opacity="0.2"/>
        <path id="Path_3375" data-name="Path 3375" d="M294.293,250.39a3.709,3.709,0,0,0-3.743,4.123,4.571,4.571,0,0,0,4.468,4.14,3.726,3.726,0,0,0,3.743-4.14A4.589,4.589,0,0,1,294.293,250.39Z" transform="translate(-94.091 -169.265)" fill="#263238"/>
        <path id="Path_3376" data-name="Path 3376" d="M307.412,240.622H287.333a2.657,2.657,0,0,1-2.346-1.518l-1.207-2.484h26.5L309.5,239.1a2.139,2.139,0,0,1-2.087,1.518Z" transform="translate(-98.982 -179.248)" opacity="0.3"/>
        <path id="Path_3377" data-name="Path 3377" d="M364,349.82H356.95s-8.815-26.461-13.955-48.886a162.688,162.688,0,0,1-3.295-17.992,51.577,51.577,0,0,1,1.725-19.975,50.023,50.023,0,0,1,8.935-17.629l-1.432-.086c13.351-.138,20.562,4.485,21.459,12.8s-13.8,57.649-14.559,64.238S364,349.82,364,349.82Z" transform="translate(-58.665 -172.993)" fill="#92e3a9"/>
        <path id="Path_3378" data-name="Path 3378" d="M337.18,244.71s-14.128,22.252-17.905,31.705-1.6,36.535-1.6,36.535-7.228-32.585-2.587-48.731S327.779,244.762,337.18,244.71Z" transform="translate(-77.415 -173.383)" fill="#92e3a9"/>
        <path id="Path_3379" data-name="Path 3379" d="M385.843,261.981c-7.435,10.66-25.185,35.69-40.468,29.825-8.056-3.674-13.8-10.35-19.13-16.819a137.515,137.515,0,0,1-12.437-18.6,4.3,4.3,0,0,1,6.9-5.089c4.9,5.089,10,10.195,15.094,14.921,4.433,4,10.126,9.211,15.266,11.092a3.277,3.277,0,0,0-1.138-.293c-.293,0-.224,0,0-.19,8.625-5.9,15.249-16.042,21.649-24.478,6.658-9.194,20.3,0,14.3,9.625Z" transform="translate(-77.709 -170.593)" fill="#e9b376"/>
        <path id="Path_3380" data-name="Path 3380" d="M364.936,266.909s-12.42,21.183-21.942,30.17a162.69,162.69,0,0,1-3.295-17.992,51.577,51.577,0,0,1,1.725-19.975l9.832-8.108C356.139,246.986,364.936,266.909,364.936,266.909Z" transform="translate(-58.665 -169.207)" opacity="0.2"/>
        <path id="Path_3381" data-name="Path 3381" d="M377.1,249.3c6.5,3.45,4.537,12.886-3.985,24.029s-23.943,26.2-32.05,23.46-17.25-13.524-17.25-13.524l5.917-16.7s11.609,8.815,14.024,8.366,14.248-15.766,17.664-20.51S370.05,245.492,377.1,249.3Z" transform="translate(-69.954 -171.128)" fill="#92e3a9"/>
        <path id="Path_3382" data-name="Path 3382" d="M287.779,251.2l-.242,3.312a3.8,3.8,0,0,1-3.226,3.45l-4.5.673,1.07-12.075,3.76.656A3.778,3.778,0,0,1,287.779,251.2Z" transform="translate(-101.86 -172.042)" fill="#ffb573"/>
      </g>
    </g>
  </g>
</svg>
